<?xml version="1.0" encoding="utf-8"?>
<!-- Generator: Adobe Illustrator 28.3.0, SVG Export Plug-In . SVG Version: 6.00 Build 0)  -->
<svg version="1.1" id="Calque_1" xmlns="http://www.w3.org/2000/svg" xmlns:xlink="http://www.w3.org/1999/xlink" x="0px" y="0px"
	 viewBox="0 0 1586.8 1586.8" style="enable-background:new 0 0 1586.8 1586.8;" xml:space="preserve">
<style type="text/css">
	.st0{fill:#FFFFFF;}
	.st1{fill:#69B815;}
	.st2{fill:#CE9300;}
	.st3{fill:#01142C;}
	
		.st4{clip-path:url(#SVGID_00000091708661976067165140000014577787595314335929_);fill:none;stroke:#FFFFFF;stroke-width:5.5532;stroke-miterlimit:10;}
	.st5{clip-path:url(#SVGID_00000161595567338736712700000000126135330540308159_);fill:#F2F2F2;}
	.st6{clip-path:url(#SVGID_00000162333294430840111140000000873768692749889706_);fill:#01142C;}
	.st7{clip-path:url(#SVGID_00000009548247149464059610000006509625618431465646_);fill:#6AD4F8;}
	.st8{clip-path:url(#SVGID_00000075844650339886803860000005256445898802878653_);}
	.st9{opacity:0.3;fill:#FFFFFF;enable-background:new    ;}
	.st10{opacity:0.71;fill:#FFFFFF;enable-background:new    ;}
	.st11{opacity:0.33;fill:#FFFFFF;enable-background:new    ;}
	.st12{opacity:0.9;fill:#FFFFFF;enable-background:new    ;}
	.st13{fill:#4CA6B5;}
	.st14{clip-path:url(#SVGID_00000036219385392950373940000004892464526235157437_);}
	.st15{fill:#F2F2F2;}
	.st16{clip-path:url(#SVGID_00000044155139879093206430000001304470950886942865_);fill:#F2F2F2;}
	.st17{clip-path:url(#SVGID_00000135665672766188823000000014288447859599645847_);}
</style>
<g>
	<path class="st0" d="M1496.9,496.1c-38.5-91-93.5-172.6-163.5-242.7c-70-70-151.7-125.1-242.6-163.5
		C996.4,50,896.4,29.8,793.4,29.8S590.4,50,496.1,89.9c-91,38.5-172.6,93.5-242.7,163.5c-70,70-125.1,151.7-163.5,242.6
		C50,590.4,29.8,690.4,29.8,793.4s20.2,203,60.1,297.3c38.5,91,93.5,172.6,163.5,242.6s151.7,125.1,242.6,163.5
		c94.3,39.9,194.3,60.1,297.3,60.1s203-20.2,297.3-60.1c91-38.5,172.6-93.5,242.6-163.5s125.1-151.7,163.5-242.6
		c39.9-94.3,60.1-194.3,60.1-297.3S1536.8,590.4,1496.9,496.1z"/>
	<path class="st1" d="M793.4,301c271.9,0,492.4,220.4,492.4,492.4s-220.4,492.4-492.4,492.4c-271.9,0-492.4-220.4-492.4-492.4
		S521.5,301,793.4,301 M793.4,65.6c-98.2,0-193.5,19.3-283.4,57.3c-86.7,36.7-164.5,89.1-231.3,155.9S159.5,423.4,122.8,510.1
		c-38,89.9-57.3,185.2-57.3,283.4s19.3,193.5,57.3,283.4c36.7,86.7,89.1,164.5,155.9,231.3s144.6,119.2,231.3,155.9
		c89.9,38,185.2,57.3,283.4,57.3c98.2,0,193.5-19.3,283.4-57.3c86.7-36.7,164.5-89.1,231.3-155.9s119.2-144.6,155.9-231.3
		c38-89.9,57.3-185.2,57.3-283.4S1502,600,1464,510.1c-36.7-86.7-89.1-164.5-155.9-231.3s-144.6-119.2-231.3-155.9
		C986.9,84.8,891.6,65.6,793.4,65.6L793.4,65.6z"/>
	<path class="st2" d="M793.4,301c271.9,0,492.4,220.4,492.4,492.4s-220.4,492.4-492.4,492.4c-271.9,0-492.4-220.4-492.4-492.4
		S521.5,301,793.4,301 M793.4,65.6c-98.2,0-193.5,19.3-283.4,57.3c-86.7,36.7-164.5,89.1-231.3,155.9S159.5,423.4,122.8,510.1
		c-38,89.9-57.3,185.2-57.3,283.4s19.3,193.5,57.3,283.4c36.7,86.7,89.1,164.5,155.9,231.3s144.6,119.2,231.3,155.9
		c89.9,38,185.2,57.3,283.4,57.3c98.2,0,193.5-19.3,283.4-57.3c86.7-36.7,164.5-89.1,231.3-155.9s119.2-144.6,155.9-231.3
		c38-89.9,57.3-185.2,57.3-283.4S1502,600,1464,510.1c-36.7-86.7-89.1-164.5-155.9-231.3s-144.6-119.2-231.3-155.9
		C986.9,84.8,891.6,65.6,793.4,65.6L793.4,65.6z"/>
	<path class="st3" d="M1524.3,484.5c-40-94.5-97.1-179.3-169.9-252.1s-157.6-129.9-252.1-169.9C1004.3,21,900.4,0,793.4,0
		S582.5,21,484.5,62.5c-94.5,39.9-179.4,97.1-252.1,169.9c-72.8,72.7-130,157.6-169.9,252.1C21,582.5,0,686.4,0,793.4
		s21,210.9,62.5,308.9c40,94.5,97.1,179.3,169.9,252.1c72.8,72.8,157.6,129.9,252.1,169.9c98,41.5,201.9,62.5,308.9,62.5
		s210.9-21,308.9-62.5c94.5-40,179.3-97.1,252.1-169.9s129.9-157.6,169.9-252.1c41.5-98,62.5-201.9,62.5-308.9
		S1565.8,582.5,1524.3,484.5z M1496.9,1090.7c-38.5,91-93.5,172.6-163.5,242.6s-151.7,125.1-242.6,163.5
		c-94.3,39.9-194.3,60.1-297.3,60.1c-103,0-203-20.2-297.3-60.1c-91.1-38.4-172.7-93.4-242.8-163.4c-70-70-125.1-151.7-163.5-242.6
		C50,996.4,29.8,896.4,29.8,793.4s20.2-203,60.1-297.3c38.5-91,93.5-172.6,163.5-242.7c70-70,151.7-125.1,242.6-163.5
		C590.4,50,690.4,29.8,793.4,29.8s203,20.2,297.3,60.1c91,38.5,172.6,93.5,242.6,163.5s125.1,151.7,163.5,242.6
		c39.9,94.3,60.1,194.3,60.1,297.3S1536.8,996.4,1496.9,1090.7z"/>
	<g>
		<g>
			<defs>
				<rect id="SVGID_1_" y="623.1" width="1586.8" height="359.2"/>
			</defs>
			<clipPath id="SVGID_00000083087308422992203620000016008120603416795062_">
				<use xlink:href="#SVGID_1_"  style="overflow:visible;"/>
			</clipPath>
			
				<circle style="clip-path:url(#SVGID_00000083087308422992203620000016008120603416795062_);fill:none;stroke:#FFFFFF;stroke-width:5.5532;stroke-miterlimit:10;" cx="793.4" cy="793.4" r="608.4"/>
		</g>
	</g>
	<g>
		<g>
			<defs>
				<circle id="SVGID_00000062870388579493078040000003611300216200122027_" cx="793.4" cy="795.7" r="427.8"/>
			</defs>
			<clipPath id="SVGID_00000022561645243396788780000011084704866225058962_">
				<use xlink:href="#SVGID_00000062870388579493078040000003611300216200122027_"  style="overflow:visible;"/>
			</clipPath>
			
				<rect x="212.2" y="220.7" style="clip-path:url(#SVGID_00000022561645243396788780000011084704866225058962_);fill:#F2F2F2;" width="1210.6" height="776.4"/>
		</g>
		<g>
			<defs>
				<circle id="SVGID_00000168117895904544961460000016675735537307550128_" cx="793.4" cy="795.7" r="427.8"/>
			</defs>
			<clipPath id="SVGID_00000179604114582029227670000015063423178692847531_">
				<use xlink:href="#SVGID_00000168117895904544961460000016675735537307550128_"  style="overflow:visible;"/>
			</clipPath>
			<path style="clip-path:url(#SVGID_00000179604114582029227670000015063423178692847531_);fill:#01142C;" d="M1031.6,565.6v-16.1
				h-241v-82.9l44.1-9.6v-15.8l-44.1,9.5v-0.1l-458.7,99v389.6h422.5h36.1h241v-67.1h-21.8V565.6H1031.6z M599.1,872h-71.9h-11.6
				h-27.3V608.6h110.8V872z M739,872h-52.1h-11.6h-47.1V608.6H739V872L739,872z M993.6,872h-99H883h-92.4V565.6h203V872z"/>
		</g>
		<g>
			<defs>
				<circle id="SVGID_00000085218608648860572560000017331854203704545471_" cx="793.4" cy="795.7" r="427.8"/>
			</defs>
			<clipPath id="SVGID_00000089540496298783013860000002731772015681848459_">
				<use xlink:href="#SVGID_00000085218608648860572560000017331854203704545471_"  style="overflow:visible;"/>
			</clipPath>
			
				<rect x="365.6" y="959.7" style="clip-path:url(#SVGID_00000089540496298783013860000002731772015681848459_);fill:#6AD4F8;" width="874.5" height="382.5"/>
		</g>
		<g>
			<defs>
				<circle id="SVGID_00000022531560555723400850000005699972242345132210_" cx="793.4" cy="795.7" r="427.8"/>
			</defs>
			<clipPath id="SVGID_00000178170342526129687020000005211280794747775660_">
				<use xlink:href="#SVGID_00000022531560555723400850000005699972242345132210_"  style="overflow:visible;"/>
			</clipPath>
			<g style="clip-path:url(#SVGID_00000178170342526129687020000005211280794747775660_);">
				<g>
					<path class="st9" d="M822,1063.8c-3.9,4.1-7.1,9.4-12.5,11.1c-4.9-3.4,6.7-12.5,1.7-15.7c-0.6-0.4-1.2-0.5-1.9-0.7
						c-7.8-2.2-12.7-9.8-16.8-16.9c-4.1-6.9-8.1-13.9-12.2-20.8c-2.5-4.3-7.6-9.1-11.5-6.1c-1.6,1.3-2.2,3.4-2.6,5.4
						c-1.6,7.3-3.2,14.7-4.8,22c-0.3,1.5-0.7,3.1-1.9,4.1c-1.7,1.4-4.1,0.5-5.5-0.9c-1.7-1.8-2.1-4.6-0.7-6.7
						c0.4-0.6,0.9-1.1,1.4-1.5c0.4-0.3,0.7-0.6,1-1c0.3-0.4,0.5-0.9,0.4-1.3c-0.2-1.2-2-1.5-2.9-1.5c-1.1,0-2.1,0.4-3,0.9
						c-2,1.3-3.3,3.6-4,5.9c-0.4,1.3-0.5,2.6-0.4,3.9c0.4,5.6,3.2,11.2,1.6,16.6c-2.4,8-12.8,10.4-21,8.8c-2.6-0.5-5.2-1.2-7.9-0.8
						c-2.6,0.4-5.3,2.3-5.5,4.9c-0.4,5.3,8.7,8.7,6.8,13.6c-9,4.5-18.3-11.6-27.7-8c-0.7,3,1.3,5.8,3.2,8.2
						c7.4,9.4,14.8,18.8,22.2,28.1c4.5,5.7,9.1,11.5,15.6,14.7c4.4,2.1,9.2,2.9,14.1,3.5c8.3,1,16.7,1.6,25.1,1.7
						c4.8,0,9.7-0.1,14.2-1.6c14.7-5,24-22.7,30.8-35.5c6.5-12.2,14.4-24.9,19.3-37.6C832.3,1056.7,825.7,1060,822,1063.8z"/>
					<path class="st10" d="M796.4,1137.1c8.1,0.1,16.7,0.1,23.8-4c7.6-4.4,12.1-12.5,16.8-20c11.7-18.5,27.2-34.5,45.3-46.7
						c2-1.3,4.2-2.9,4.6-5.2c0.6-3.6-3.6-6.5-7.2-6s-6.5,3.1-9.1,5.5c-8.2,7.7-16.5,15.4-24.7,23.1c-4.2,3.9-8.3,7.8-12.5,11.7
						c-1.5,1.4-8.2,9.7-10.2,5.4c-0.6-1.3-0.2-2.9,0.3-4.2c3.5-8.9,10.5-17.3,17.4-23.8c3.5-3.3,7.2-6.5,10.6-10
						c2.9-3,6.7-5.6,8.9-9.2c0.2-0.4,0.4-0.8,0.5-1.2c0-1-0.8-1.8-1.7-2.1c-5.1-1.6-11.3,0.7-15.6,3.3
						c-15.5,9.6-24.7,26.3-36.5,40.2c-11.7,13.9-29.6,26.1-47.1,21c-24.2-7-31.5-41.7-55.5-49.3c-2.1-0.7-4.4-1-6.3,0.1
						c-3,1.8-2.7,6.6-0.4,9.3c2.3,2.7,5.7,4,8.8,5.8c10,5.7,16.6,17.2,16.4,28.7c-9.7-5-15.3-15.1-22.6-23.1
						c-8.5-9.2-19.7-15.8-31.9-18.6c-2.2-0.5-4.5-0.9-6.6,0s-3.6,3.4-2.6,5.4c0.6,1.2,1.9,1.9,3.2,2.5c19,9.3,36.1,22.4,50,38.5
						c8.9,10.3,18.1,21.6,32.5,22.6C761.9,1138,779.4,1137,796.4,1137.1z"/>
					<path class="st11" d="M868.9,1047.9c-0.9,1.2-1.4,2.9-0.6,4.1c0.6,1,1.9,1.4,3.1,1.4c3.3,0.2,6.6-1.6,8.2-4.5
						c0.3-0.6,0.6-1.3,0.4-2c-0.2-0.5-0.6-0.9-1.1-1.2C875.4,1043.6,871.2,1044.7,868.9,1047.9z"/>
					<path class="st12" d="M817.3,1113.6c-0.3,1.2-0.1,2.7,1,3.3c0.5,0.3,1.1,0.3,1.6,0.3c0.9,0,1.8,0,2.6-0.4
						c0.4-0.2,0.7-0.5,1-0.7c1.6-1.4,3.2-2.8,4.2-4.7c0.3-0.7,0.6-1.4,0.6-2.1c-0.2-2.6-3.7-3.6-5.7-2.4
						C820.2,1108.1,817.9,1111,817.3,1113.6z"/>
					<path class="st12" d="M792.3,1068.6c-0.2,1.6-0.1,3.3-0.7,4.7c-0.7,1.5-2.1,2.6-3.1,3.9c-1.1,1.3-1.8,3.2-0.9,4.6
						c0.4,0.7,1.1,1.1,1.9,1.4c2.2,0.9,4.7,0.7,6.9-0.2c2.2-0.9,4-2.4,5.6-4.1c2.9-3.3,5-7.5,4.7-11.9c-0.2-3.4-3.3-8-7.2-6.8
						C795.7,1061.3,792.8,1064.9,792.3,1068.6z"/>
					<path class="st11" d="M740.8,1032.1c-1-0.1-1.8-0.3-2.7,0c-0.8,0.3-1.6,0.7-2.3,1.3c-1.8,1.6-2.9,4.5-2.9,6.9
						c0,2.1,1.4,4.2,3.4,4.5c1.9,0.3,3.6-1.1,4.8-2.5c1.5-1.7,2.7-3.8,3-6c0.2-1.2,0-2.5-0.9-3.3
						C742.6,1032.4,741.7,1032.2,740.8,1032.1z"/>
					<path class="st13" d="M756.2,1038.7c-0.1,0.3,0,0.7,0.1,1c0.2,0.2,0.4,0.4,0.7,0.5c0.6,0.3,1.3,0.2,1.9-0.1
						c0.6-0.3,1-0.9,1.2-1.5c0.1-0.2,0.1-0.5,0-0.7s-0.2-0.3-0.3-0.4C758.3,1036.2,756.5,1037,756.2,1038.7z"/>
				</g>
			</g>
		</g>
		<g>
			<defs>
				<circle id="SVGID_00000077311145695248842140000002257179681541492613_" cx="793.4" cy="795.7" r="427.8"/>
			</defs>
			<clipPath id="SVGID_00000114775585432832380830000007344560316295126206_">
				<use xlink:href="#SVGID_00000077311145695248842140000002257179681541492613_"  style="overflow:visible;"/>
			</clipPath>
			<g style="clip-path:url(#SVGID_00000114775585432832380830000007344560316295126206_);">
				<path class="st3" d="M783.1,1085.6c-8.6,0-16.2-5-20.3-13.5c-3.9-7.9-8.8-10.3-14.5-13.1c-6-2.9-12.7-6.3-18-15.7
					c-2.9-5.1-3.4-10-1.6-14.5c4.5-10.9,22-16,42.3-21.9c1.8-0.5,3.6-1,5.4-1.6c8.4-2.5,13.6-7.5,19.1-15.2c-2.5-0.8-4-2.2-4.9-3.6
					c-2.5-3.7-1.7-8.6-0.8-11.6c-0.7-2.9-0.1-5.6,1.7-8.2c-0.2-1.9-0.2-4.9,2.2-7.9c0.2-1.9,0.9-4.6,2.9-7.6c0.2-3.2,1.5-7,4.6-10.2
					c1.5-4.3,6.3-7.9,14.6-10.9c1.7-1.4,4.3-2.7,8.2-2.7c7.1,0,15.1,4.2,19.6,7c20.6-14.4,41.5-24.7,62.2-30.7
					c6.6-2,12.8-3.2,14.6-3.5l0,0c0.4-0.1,0.8-0.1,1.2-0.2c1.4-0.2,3.4-0.5,5.5-0.8c5.7-0.8,9.7-1.2,11.9-1.3h0.3
					c2.7,0,5.9,1.6,6.9,6.2c3.3,14.7-18.7,74-65.8,96c-4.6,2.2-9.3,4.2-13.8,6c1,22.8-3.5,27.6-7.7,29.1c-1.2,0.5-2.5,0.7-3.8,0.7
					l0,0c-3.9,0-6.8-2-8.7-3.4c-0.2-0.1-0.3-0.2-0.5-0.4c-0.2,0-0.4,0-0.6,0c-4,0-8.9-3.4-11.2-6.8c-1-0.4-2.4-1.1-3.7-2.3
					c-11.4,7.6-17.2,16.4-18.5,27.9C809.1,1074.9,795.4,1085.6,783.1,1085.6z"/>
				<path class="st15" d="M939.3,902.9c9.5,0-10.6,69.2-61,92.8c-5.5,2.6-11.2,4.9-16.8,7.2c0.7,11.8,0.4,26-4.3,27.7
					c-0.7,0.3-1.4,0.4-2.1,0.4c-3.9,0-6.7-4-8.7-4c-0.2,0-0.4,0-0.6,0.1c-0.2,0-0.4,0.1-0.6,0.1c-3,0-7.5-4.4-7.7-5.7
					c-1.9-1.1-5.2-1.5-5.4-5.4c-13.4,7.7-23.3,17.7-25.3,34.3c-2.4,20.6-13.6,30.1-23.9,30.1c-6.4,0-12.5-3.7-15.9-10.7
					c-8.9-18.3-23.2-12.3-32.6-29.1c-9.4-16.8,16.1-22.8,43.2-30.8c13.1-3.8,19.6-13.5,27.3-25.5c-2.5,0.8-4.4,1.1-6,1.1
					c-7.4,0-5.2-7.9-4.1-10.7c-0.5-1.2-1.7-3.4,1.8-6.7c-0.2-1.8-1.6-4.3,1.9-7.6c-0.2-1.4,0-4.3,2.8-7.9c-0.2-1.8,0.3-6,4.2-9.2
					c0.1-2,2.5-5.7,12.7-9.2c1.3-1.5,3.3-2.1,5.6-2.1c5.7,0,13.5,3.7,19.7,8.1c23.5-16.8,45-26.6,63.5-31.9
					c7.4-2.3,14.2-3.4,14.1-3.4c0,0-0.3,0-0.8,0.1c-0.3,0-0.5,0.1-0.5,0.1C920,905.3,934.2,903.2,939.3,902.9L939.3,902.9
					 M939.3,893.1c-0.2,0-0.4,0-0.5,0c-2.4,0.1-6.5,0.6-12.4,1.4c-2.1,0.3-4.1,0.6-5.5,0.8c-0.7,0.1-1.3,0.2-1.7,0.3
					c-0.5,0.1-0.9,0.2-1.3,0.3c-2.8,0.6-8,1.6-13.5,3.3c-20.3,5.9-40.8,15.8-61,29.6c-5.3-3-12.5-6.1-19.4-6.1
					c-4.9,0-8.3,1.5-10.7,3.3c-8.7,3.3-14.2,7.5-16.4,12.6c-3.1,3.5-4.7,7.5-5.1,11.2c-1.7,2.7-2.5,5.3-2.8,7.5
					c-2,3.1-2.5,6.1-2.5,8.5c-1.4,2.4-2.3,5.6-1.8,9.2c-1.1,4.2-1.5,9.8,1.8,14.6c0.4,0.6,1,1.4,1.7,2.1c-3.8,4.5-7.8,7.6-13.2,9.2
					c-1.8,0.5-3.6,1-5.4,1.6c-21.5,6.2-40.1,11.6-45.5,24.7c-1.7,4.1-2.7,10.7,1.8,18.8c6,10.8,13.9,14.7,20.2,17.8
					c5.5,2.7,9.1,4.5,12.2,10.9c5,10.2,14.2,16.2,24.8,16.2c14.5,0,30.6-12,33.7-38.8c1.1-9.2,5.3-16.3,13.7-22.5
					c0.1,0.1,0.3,0.1,0.4,0.2c0.9,1.1,2,2.2,3.3,3.3c2.4,2,6,4.3,10.3,4.6c2.2,1.6,5.9,3.8,10.8,3.8c1.9,0,3.7-0.3,5.5-1
					c8.9-3.3,10.2-14.6,10.6-18.3c0.4-3.5,0.5-7.6,0.4-12.2c3.6-1.5,7.2-3.1,10.9-4.8c26.9-12.6,44.1-35.6,53.8-52.6
					c10.8-19.1,16.9-39.2,14.7-48.9C949.4,895.7,943.7,893.1,939.3,893.1L939.3,893.1z"/>
			</g>
		</g>
		<g>
			<defs>
				<circle id="SVGID_00000005231967311771080260000012334812920189328564_" cx="793.4" cy="795.7" r="427.8"/>
			</defs>
			<clipPath id="SVGID_00000080168823637851350420000014614733518853585569_">
				<use xlink:href="#SVGID_00000005231967311771080260000012334812920189328564_"  style="overflow:visible;"/>
			</clipPath>
			<path style="clip-path:url(#SVGID_00000080168823637851350420000014614733518853585569_);fill:#F2F2F2;" d="M882.8,522
				c-12.1,12,21.2,38.1,40.4,46.9s-31.3,37.8-29.6,57.3s36,70.9,112.7,69.3s60.5-161.6,60.5-161.6L882.8,522z"/>
		</g>
		<g>
			<defs>
				<circle id="SVGID_00000062912716671665644930000007242265565741850298_" cx="793.4" cy="795.7" r="427.8"/>
			</defs>
			<clipPath id="SVGID_00000117668872354978000640000000044413051880150423_">
				<use xlink:href="#SVGID_00000062912716671665644930000007242265565741850298_"  style="overflow:visible;"/>
			</clipPath>
			<g style="clip-path:url(#SVGID_00000117668872354978000640000000044413051880150423_);">
				<g>
					<path class="st2" d="M1200.5,496.3c-8.7-6.6-18.5-11.3-29.1-14.2l-1.9-0.5l0.6-1.9c4.2-13,6.1-26.8,5.7-40.8
						c-0.1-3.9-3.2-7.5-7.1-8.1c-13.8-2.3-27.7-2.2-41.1,0.2l-1.9,0.3l-0.3-1.9c-1.4-10.9-4.8-21.2-10.2-30.7
						c-20.6-36.8-65.4-46.1-79.3-45.3c-5.4,0.3-7.5,3.5-8.3,5.4l0,0c-4.8,11.4-7.9,24.7-8.8,38.3l-0.1,2.2l-2.1-0.5
						c-26.6-5.9-53.6-2.9-78.3,8.6c-3.7,1.7-5.6,5.8-4.6,9.8c4.8,19,14.3,36.9,27.4,51.7l1.5,1.7l-1.9,1.1
						c-16.9,9.9-31.3,24-41.7,40.7c-2.1,3.4-1.5,8,1.4,10.7c14.7,13.6,31.8,23.2,50.9,28.4l2.3,0.6l-1.2,2.1
						c-12,21-18.4,43.6-17.8,63.6c0.1,4.1,3.1,7.5,7.1,8.2c19.7,3.2,43,0,65.5-9.1l2.2-0.9l0.3,2.4c2.6,19.6,9.8,37.9,21.3,54.2
						c1.6,2.2,4.1,3.5,6.7,3.6c1.3,0,2.6-0.2,3.8-0.7c17.9-8.1,33.8-20.5,46-35.8l1.4-1.8l1.5,1.7c13,15.1,29.5,26.9,47.6,34.1
						c3.8,1.5,8.1,0.1,10.3-3.3c14.7-22.9,21.3-49.3,19-76.4l-0.2-2.1l2.2,0.1c13.6,0.9,27.1-0.3,39.1-3.6c2-0.5,5.4-2.2,6.5-7.5
						C1236.7,570.8,1236.8,523.6,1200.5,496.3z M1157.5,655.1l-1.6-0.8c-14.3-7.2-27-17.8-36.6-30.5l-0.7-1l0.6-1.1
						c4.3-8.1,7.8-16.7,10.2-25.6c6.7-24.5,5.7-50-2.8-73.8l-2.2-6l5,3.9c5.5,4.2,10.6,9,15.1,14.2c9.5,10.9,16.5,23.4,21,37.4
						c8.7,27.4,6.2,56.4-7.1,81.6L1157.5,655.1z M1125.9,448.7l1.3-0.3l0,0c9.7-2,19.8-2.7,29.7-1.8l1.8,0.1l-0.1,1.8
						c-0.5,10-2.5,19.9-5.8,29.2l-0.5,1.3l-1.4-0.1c-9.2-0.5-19,0.3-29.3,2.2l-3.1,0.6l1-3c3.3-9.8,5.3-19.5,6.1-28.7L1125.9,448.7z
						 M1105.4,467.4l-1.4,4.9l-2.1-4.7c-11.9-26.2-32.8-47.4-58.9-59.8c-2-1-4.1-1.9-6.2-2.8l-1.2-0.5v-1.3
						c0.3-10.8,2.1-21.6,5.2-31.2l0.5-1.5l1.5,0.2c20.3,2.7,38.1,11.8,50.1,25.6c2.9,3.3,5.4,6.9,7.5,10.6
						C1110.1,424.3,1111.7,444.6,1105.4,467.4z M1069.9,449.1c4.5,5.2,8.6,10.9,12,16.9l3.1,5.5l-5.6-2.9
						c-16.2-8.5-33.9-13.1-52-13.7c-6.9-0.2-13.8,0.1-20.7,1c-9.1,1.2-18.1,3.5-26.8,6.7l-1.1,0.4l-0.8-0.8
						c-11.3-11.3-20-25.3-25.3-40.4l-0.6-1.7l1.7-0.6c26.8-9.8,55.8-8.4,81.8,3.9C1048.9,429.5,1060.4,438.2,1069.9,449.1z
						 M1009,472.7c21.7-2.9,43.3,0.9,62.6,11l5.5,2.9l-6.2,0.6c-25.4,2.5-49,12.8-68.3,29.6c-6.4,5.6-12.5,12.1-18.2,19.4l-0.7,0.9
						l-1.1-0.2c-16.1-3.3-30.9-10.1-43.9-20.2l-1.4-1.1l1.1-1.5C955.6,491.1,980.6,476.4,1009,472.7z M971.8,608.2
						c2.6-27.7,19.1-58.6,42-78.6c21.5-18.8,49.1-27.9,77.6-25.7l1.8,0.1l-0.1,1.8c-1.6,28.5-14.4,54.6-35.9,73.4
						c-22.8,19.9-55.2,32-82.9,31.1c-0.2,0-0.4,0-0.6,0l-2-0.1L971.8,608.2z M1046.7,607.4c8-4.6,15.3-9.8,21.7-15.4
						c19.3-16.8,32.6-38.8,38.5-63.6l1.4-6l2.1,5.8c7.4,20.4,8.2,42.4,2.4,63.5c-7.6,27.6-25.5,50.4-50.4,64.3l-1.6,0.9l-0.9-1.6
						c-8.3-14.2-13.1-29.8-14.2-46.2l-0.1-1.2L1046.7,607.4z M1183.6,573.3c-0.6-2.3-1.2-4.5-1.9-6.6c-8.8-27.6-27-51.2-51.4-66.5
						l-4.3-2.7l5.1-0.7c23.4-3.3,43.4,1.1,59.2,13c3.4,2.6,6.6,5.5,9.5,8.8c12,13.8,18.6,32.6,18.6,53.1v1.5l-1.5,0.3
						c-9.9,1.8-20.9,2.2-31.6,1l-1.3-0.1L1183.6,573.3z"/>
				</g>
				<g>
					<path class="st2" d="M934.7,633.3c-2.6-0.2-5.1,0.7-7.1,2.4s-3.1,4.1-3.3,6.7c-0.2,2.6,0.7,5.1,2.4,7.1c1.7,2,4.1,3.1,6.7,3.3
						c0.1,0,0.2,0,0.3,0c2.5,0.1,4.9-0.8,6.8-2.4c2-1.7,3.1-4.1,3.3-6.7c0.2-2.6-0.7-5.1-2.4-7.1S937.3,633.5,934.7,633.3z"/>
				</g>
				<g>
					<path class="st2" d="M932.1,598.8c0.2-2.6-0.7-5.1-2.4-7.1c-3.5-4.1-9.7-4.5-13.8-0.9l0,0c-4.1,3.5-4.5,9.7-0.9,13.8
						c1.7,2,4.1,3.1,6.7,3.3c0.1,0,0.2,0,0.3,0c2.5,0.1,4.9-0.8,6.8-2.4C930.7,603.8,931.9,601.4,932.1,598.8z"/>
				</g>
				<g>
					<path class="st2" d="M970.5,653.3L970.5,653.3c-4.1,3.5-4.5,9.7-0.9,13.8c1.8,2.1,4.4,3.2,7,3.3c2.4,0.1,4.8-0.7,6.8-2.4
						c4.1-3.5,4.5-9.7,0.9-13.8S974.5,649.7,970.5,653.3z"/>
				</g>
			</g>
		</g>
	</g>
	<g>
		<path class="st0" d="M329.2,525.7L213,438.4l28.6-38.1c10.6-14.1,22.1-24.4,34.5-31.1c12.5-6.7,25.2-9.6,38.1-8.7
			c12.9,0.9,25.3,5.8,37.2,14.7c11.8,8.9,20,19.4,24.5,31.6c4.5,12.2,5.2,25.2,2.3,39c-3,13.9-9.7,27.8-20.3,41.9L329.2,525.7z
			 M326.3,486.2l11.3-15c7-9.3,11.5-18.3,13.4-27c2-8.7,1.4-16.8-1.6-24.3c-3-7.6-8.5-14.3-16.4-20.2c-8-6-16-9.3-24-10.1
			c-8.1-0.8-16,1-23.8,5.3S270,406,263,415.3l-11.3,15L326.3,486.2z"/>
		<path class="st0" d="M503.9,350.6c-9.2,6.1-18.8,10.1-28.7,12c-9.9,2-19.6,2-29.1,0c-9.5-1.9-18.3-5.7-26.5-11.3
			s-15.3-12.9-21.2-22c-6-9.1-9.9-18.5-11.8-28.3c-1.9-9.8-1.8-19.4,0.2-28.9s5.9-18.3,11.7-26.6c5.8-8.3,13.3-15.4,22.5-21.5
			s18.8-10.1,28.6-12c9.9-1.9,19.5-1.9,28.9,0s18.2,5.7,26.5,11.3c8.2,5.6,15.3,12.9,21.3,22.1c6,9.1,9.9,18.5,11.7,28.2
			c1.9,9.7,1.8,19.3-0.2,28.8s-5.8,18.3-11.6,26.6C520.6,337.4,513.1,344.5,503.9,350.6z M489.5,328.8c5.5-3.6,9.9-8,13.2-13.2
			s5.4-10.8,6.4-16.8s0.8-12.2-0.5-18.4c-1.4-6.3-4-12.3-7.8-18.2c-3.9-5.9-8.4-10.7-13.6-14.5c-5.2-3.8-10.8-6.4-16.7-7.9
			s-11.9-1.8-17.9-0.8s-11.8,3.3-17.3,6.9s-9.9,8-13.3,13.2c-3.3,5.2-5.5,10.8-6.5,16.8s-0.8,12.2,0.6,18.5c1.4,6.3,4,12.4,7.9,18.3
			s8.4,10.7,13.6,14.5c5.2,3.8,10.8,6.4,16.7,7.9s11.9,1.7,18,0.7C478.3,334.7,484.1,332.4,489.5,328.8z"/>
		<path class="st0" d="M759.7,256.9l-29.2,6.1l-21.1-100.5l-19.5,84.1l-22.6,4.7l-51.5-68.9l21,100.3l-29.2,6.1l-29.8-142.3
			l37.1-7.8l56.9,77.8l20.9-94.1l37.2-7.8L759.7,256.9z"/>
		<path class="st0" d="M831.6,261.2l-31-4.7l79-135.1l31.1,4.7l35.5,152.4l-31-4.7l-7.1-32.6l-60.2-9.1L831.6,261.2z M861.7,207.7
			l40.9,6.2l-12.5-56.4L861.7,207.7z"/>
		<path class="st0" d="M986.4,297.4l56.5-133.9l27.5,11.6L1013.9,309L986.4,297.4z"/>
		<path class="st0" d="M1168,410.1l-27.3-20.8l6.1-120.1l-60.1,78.9L1063,330l88.1-115.6l27.3,20.8l-6.2,120.3l60.3-79.1l23.7,18.1
			L1168,410.1z"/>
		<path class="st0" d="M1201.6,449.2l118.9-83.7l54,76.7l-21.3,15l-36.8-52.3l-27,19l34.5,49.1l-21.4,15.1L1268,439l-27.8,19.6
			l37.4,53.1l-21.3,15L1201.6,449.2z"/>
	</g>
	<g>
		<path class="st3" d="M191,1117.7l106.7-69.5l22.8,34.9c8.4,12.9,13.5,25.5,15.3,37.8s0.4,23.6-4.2,34s-12.4,19.1-23.3,26.2
			s-22,10.6-33.3,10.7c-11.4,0-22.3-3.2-32.8-9.8c-10.5-6.6-20-16.3-28.4-29.2L191,1117.7z M224.4,1127.2l9,13.8
			c5.6,8.5,11.6,14.9,18.2,19.1s13.4,6.2,20.5,6s14.3-2.7,21.6-7.4c7.3-4.8,12.5-10.3,15.5-16.8c3.1-6.4,4-13.5,2.8-21.2
			s-4.6-15.8-10.1-24.4l-9-13.8L224.4,1127.2z"/>
		<path class="st3" d="M292.2,1257.3l88.1-92l59.4,56.9l-15.8,16.5l-40.5-38.8l-20,20.9l38,36.4l-15.9,16.6l-38-36.4l-20.6,21.5
			l41.1,39.4l-15.8,16.5L292.2,1257.3z"/>
		<path class="st3" d="M561.7,1437.3l-27.3-12.5l-17.8-103.9l-36.3,79l-23.8-10.9l53.2-115.7l27.3,12.5l17.7,104l36.4-79.2
			l23.8,10.9L561.7,1437.3z"/>
		<path class="st3" d="M619.9,1454.1l24.7-124.9l80.6,16l-4.4,22.4l-55-10.9l-5.6,28.4l51.6,10.2l-4.5,22.5l-51.6-10.2l-5.8,29.2
			l55.8,11.1l-4.4,22.4L619.9,1454.1z"/>
		<path class="st3" d="M865.6,1345.8l2.1,70c0.4,12.4-1.5,23.2-5.7,32.3c-4.2,9.1-10.3,16.1-18.5,21.1c-8.2,5-18,7.7-29.6,8
			c-11.5,0.3-21.5-1.8-30-6.3s-15-11.2-19.7-20c-4.7-8.8-7.2-19.4-7.6-31.9l-2.1-70l26.1-0.8l2,66.8c0.3,8.9,1.6,16.3,4,22.1
			c2.4,5.9,5.8,10.3,10.3,13.2c4.4,2.9,9.9,4.3,16.3,4.1c6.5-0.2,11.8-1.9,16.1-5c4.3-3.2,7.4-7.7,9.5-13.7s3-13.5,2.7-22.3l-2-66.8
			L865.6,1345.8z"/>
		<path class="st3" d="M998.9,1443.7l-26.6,7.8l-84.6-107.9l26.3-7.7l63.1,83.1l8.1-104l26.4-7.7L998.9,1443.7z"/>
		<path class="st3" d="M1091.3,1406.9l-57.9-113.4l23.3-11.9l57.9,113.4L1091.3,1406.9z"/>
		<path class="st3" d="M1229.1,1319.6l-67.4,48.8l-74.7-103.2l21.2-15.3l61.3,84.7l46.2-33.5L1229.1,1319.6z"/>
		<path class="st3" d="M1323.2,1224.8l-56.7,60.9l-93.2-86.8l17.8-19.1l76.5,71.2l38.9-41.8L1323.2,1224.8z"/>
		<path class="st3" d="M1353.6,1184l-108.6-66.5l42.9-70.1l19.5,11.9l-29.3,47.8l24.7,15.1l27.5-44.8l19.5,12l-27.5,44.8l25.4,15.6
			l29.7-48.5l19.5,11.9L1353.6,1184z"/>
	</g>
</g>
</svg>
